<svg width="326" height="513" viewBox="0 0 326 513" fill="none" xmlns="http://www.w3.org/2000/svg">
<path d="M26 68.0529V41.5864L163 1.70374L300 41.5864V68.0529H325V256.704V445.355H300V471.821L163 511.704L26 471.821V445.355H1V256.704V68.0529H26Z" stroke="#EC9342" stroke-width="1.4"/>
<path d="M17 50.721C17 53.1324 16.2531 55.1151 14.7592 56.669C13.2654 58.223 11.4046 59 9.1769 59C7.68305 59 6.58231 58.7991 5.87469 58.3972C4.32842 57.5398 3.12285 56.3877 2.25799 54.9409C1.41933 53.4941 1 51.9535 1 50.3191C1 46.7289 2.74283 44.0764 6.2285 42.3617C6.72645 42.1206 7.81409 42 9.4914 42C11.457 42 13.1867 42.7904 14.6806 44.3712C16.2269 46.0591 17 48.1757 17 50.721ZM15.1916 50.3995C15.1916 48.1489 14.8116 46.4744 14.0516 45.3759C13.6585 44.8132 13.0033 44.3176 12.086 43.8889C11.0901 43.4066 10.1073 43.1655 9.13759 43.1655C7.48649 43.1655 6.00573 43.7817 4.69533 45.0142C3.38493 46.2467 2.72973 47.6533 2.72973 49.234C2.72973 50.9756 3.37183 52.5028 4.65602 53.8156C5.94021 55.1284 7.48649 55.7849 9.29484 55.7849C10.9984 55.7849 12.4267 55.2222 13.5799 54.0969C14.6544 53.052 15.1916 51.8195 15.1916 50.3995ZM12.3219 49.2742C12.3219 50.3459 12.0205 51.2033 11.4177 51.8463C10.8411 52.4626 10.068 52.7707 9.09828 52.7707C8.20721 52.7707 7.44717 52.3822 6.81818 51.6052C6.18919 50.8014 5.87469 49.9173 5.87469 48.9527C5.87469 48.1489 6.20229 47.4121 6.85749 46.7423C7.51269 46.0725 8.22031 45.7376 8.98034 45.7376C9.87142 45.7376 10.6446 46.0993 11.2998 46.8227C11.9812 47.5461 12.3219 48.3633 12.3219 49.2742Z" fill="#EC9342"/>
<path d="M17 50.721C17 53.1324 16.2531 55.1151 14.7592 56.669C13.2654 58.223 11.4046 59 9.1769 59C7.68305 59 6.58231 58.7991 5.87469 58.3972C4.32842 57.5398 3.12285 56.3877 2.25799 54.9409C1.41933 53.4941 1 51.9535 1 50.3191C1 46.7289 2.74283 44.0764 6.2285 42.3617C6.72645 42.1206 7.81409 42 9.4914 42C11.457 42 13.1867 42.7904 14.6806 44.3712C16.2269 46.0591 17 48.1757 17 50.721ZM15.1916 50.3995C15.1916 48.1489 14.8116 46.4744 14.0516 45.3759C13.6585 44.8132 13.0033 44.3176 12.086 43.8889C11.0901 43.4066 10.1073 43.1655 9.13759 43.1655C7.48649 43.1655 6.00573 43.7817 4.69533 45.0142C3.38493 46.2467 2.72973 47.6533 2.72973 49.234C2.72973 50.9756 3.37183 52.5028 4.65602 53.8156C5.94021 55.1284 7.48649 55.7849 9.29484 55.7849C10.9984 55.7849 12.4267 55.2222 13.5799 54.0969C14.6544 53.052 15.1916 51.8195 15.1916 50.3995ZM12.3219 49.2742C12.3219 50.3459 12.0205 51.2033 11.4177 51.8463C10.8411 52.4626 10.068 52.7707 9.09828 52.7707C8.20721 52.7707 7.44717 52.3822 6.81818 51.6052C6.18919 50.8014 5.87469 49.9173 5.87469 48.9527C5.87469 48.1489 6.20229 47.4121 6.85749 46.7423C7.51269 46.0725 8.22031 45.7376 8.98034 45.7376C9.87142 45.7376 10.6446 46.0993 11.2998 46.8227C11.9812 47.5461 12.3219 48.3633 12.3219 49.2742Z" fill="#EC9342"/>
<path d="M17 462.279C17 459.868 16.2531 457.885 14.7592 456.331C13.2654 454.777 11.4046 454 9.1769 454C7.68305 454 6.58231 454.201 5.87469 454.603C4.32842 455.46 3.12285 456.612 2.25799 458.059C1.41933 459.506 1 461.046 1 462.681C1 466.271 2.74283 468.924 6.2285 470.638C6.72645 470.879 7.81409 471 9.4914 471C11.457 471 13.1867 470.21 14.6806 468.629C16.2269 466.941 17 464.824 17 462.279ZM15.1916 462.6C15.1916 464.851 14.8116 466.526 14.0516 467.624C13.6585 468.187 13.0033 468.682 12.086 469.111C11.0901 469.593 10.1073 469.835 9.13759 469.835C7.48649 469.835 6.00573 469.218 4.69533 467.986C3.38493 466.753 2.72973 465.347 2.72973 463.766C2.72973 462.024 3.37183 460.497 4.65602 459.184C5.94021 457.872 7.48649 457.215 9.29484 457.215C10.9984 457.215 12.4267 457.778 13.5799 458.903C14.6544 459.948 15.1916 461.18 15.1916 462.6ZM12.3219 463.726C12.3219 462.654 12.0205 461.797 11.4177 461.154C10.8411 460.537 10.068 460.229 9.09828 460.229C8.20721 460.229 7.44717 460.618 6.81818 461.395C6.18919 462.199 5.87469 463.083 5.87469 464.047C5.87469 464.851 6.20229 465.588 6.85749 466.258C7.51269 466.928 8.22031 467.262 8.98034 467.262C9.87142 467.262 10.6446 466.901 11.2998 466.177C11.9812 465.454 12.3219 464.637 12.3219 463.726Z" fill="#EC9342"/>
<path d="M17 462.279C17 459.868 16.2531 457.885 14.7592 456.331C13.2654 454.777 11.4046 454 9.1769 454C7.68305 454 6.58231 454.201 5.87469 454.603C4.32842 455.46 3.12285 456.612 2.25799 458.059C1.41933 459.506 1 461.046 1 462.681C1 466.271 2.74283 468.924 6.2285 470.638C6.72645 470.879 7.81409 471 9.4914 471C11.457 471 13.1867 470.21 14.6806 468.629C16.2269 466.941 17 464.824 17 462.279ZM15.1916 462.6C15.1916 464.851 14.8116 466.526 14.0516 467.624C13.6585 468.187 13.0033 468.682 12.086 469.111C11.0901 469.593 10.1073 469.835 9.13759 469.835C7.48649 469.835 6.00573 469.218 4.69533 467.986C3.38493 466.753 2.72973 465.347 2.72973 463.766C2.72973 462.024 3.37183 460.497 4.65602 459.184C5.94021 457.872 7.48649 457.215 9.29484 457.215C10.9984 457.215 12.4267 457.778 13.5799 458.903C14.6544 459.948 15.1916 461.18 15.1916 462.6ZM12.3219 463.726C12.3219 462.654 12.0205 461.797 11.4177 461.154C10.8411 460.537 10.068 460.229 9.09828 460.229C8.20721 460.229 7.44717 460.618 6.81818 461.395C6.18919 462.199 5.87469 463.083 5.87469 464.047C5.87469 464.851 6.20229 465.588 6.85749 466.258C7.51269 466.928 8.22031 467.262 8.98034 467.262C9.87142 467.262 10.6446 466.901 11.2998 466.177C11.9812 465.454 12.3219 464.637 12.3219 463.726Z" fill="#EC9342"/>
<path d="M309 50.721C309 53.1324 309.747 55.1151 311.241 56.669C312.735 58.223 314.595 59 316.823 59C318.317 59 319.418 58.7991 320.125 58.3972C321.672 57.5398 322.877 56.3877 323.742 54.9409C324.581 53.4941 325 51.9535 325 50.3191C325 46.7289 323.257 44.0764 319.771 42.3617C319.274 42.1206 318.186 42 316.509 42C314.543 42 312.813 42.7904 311.319 44.3712C309.773 46.0591 309 48.1757 309 50.721ZM310.808 50.3995C310.808 48.1489 311.188 46.4744 311.948 45.3759C312.342 44.8132 312.997 44.3176 313.914 43.8889C314.91 43.4066 315.893 43.1655 316.862 43.1655C318.514 43.1655 319.994 43.7817 321.305 45.0142C322.615 46.2467 323.27 47.6533 323.27 49.234C323.27 50.9756 322.628 52.5028 321.344 53.8156C320.06 55.1284 318.514 55.7849 316.705 55.7849C315.002 55.7849 313.573 55.2222 312.42 54.0969C311.346 53.052 310.808 51.8195 310.808 50.3995ZM313.678 49.2742C313.678 50.3459 313.98 51.2033 314.582 51.8463C315.159 52.4626 315.932 52.7707 316.902 52.7707C317.793 52.7707 318.553 52.3822 319.182 51.6052C319.811 50.8014 320.125 49.9173 320.125 48.9527C320.125 48.1489 319.798 47.4121 319.143 46.7423C318.487 46.0725 317.78 45.7376 317.02 45.7376C316.129 45.7376 315.355 46.0993 314.7 46.8227C314.019 47.5461 313.678 48.3633 313.678 49.2742Z" fill="#EC9342"/>
<path d="M309 50.721C309 53.1324 309.747 55.1151 311.241 56.669C312.735 58.223 314.595 59 316.823 59C318.317 59 319.418 58.7991 320.125 58.3972C321.672 57.5398 322.877 56.3877 323.742 54.9409C324.581 53.4941 325 51.9535 325 50.3191C325 46.7289 323.257 44.0764 319.771 42.3617C319.274 42.1206 318.186 42 316.509 42C314.543 42 312.813 42.7904 311.319 44.3712C309.773 46.0591 309 48.1757 309 50.721ZM310.808 50.3995C310.808 48.1489 311.188 46.4744 311.948 45.3759C312.342 44.8132 312.997 44.3176 313.914 43.8889C314.91 43.4066 315.893 43.1655 316.862 43.1655C318.514 43.1655 319.994 43.7817 321.305 45.0142C322.615 46.2467 323.27 47.6533 323.27 49.234C323.27 50.9756 322.628 52.5028 321.344 53.8156C320.06 55.1284 318.514 55.7849 316.705 55.7849C315.002 55.7849 313.573 55.2222 312.42 54.0969C311.346 53.052 310.808 51.8195 310.808 50.3995ZM313.678 49.2742C313.678 50.3459 313.98 51.2033 314.582 51.8463C315.159 52.4626 315.932 52.7707 316.902 52.7707C317.793 52.7707 318.553 52.3822 319.182 51.6052C319.811 50.8014 320.125 49.9173 320.125 48.9527C320.125 48.1489 319.798 47.4121 319.143 46.7423C318.487 46.0725 317.78 45.7376 317.02 45.7376C316.129 45.7376 315.355 46.0993 314.7 46.8227C314.019 47.5461 313.678 48.3633 313.678 49.2742Z" fill="#EC9342"/>
<path d="M309 462.279C309 459.868 309.747 457.885 311.241 456.331C312.735 454.777 314.595 454 316.823 454C318.317 454 319.418 454.201 320.125 454.603C321.672 455.46 322.877 456.612 323.742 458.059C324.581 459.506 325 461.046 325 462.681C325 466.271 323.257 468.924 319.771 470.638C319.274 470.879 318.186 471 316.509 471C314.543 471 312.813 470.21 311.319 468.629C309.773 466.941 309 464.824 309 462.279ZM310.808 462.6C310.808 464.851 311.188 466.526 311.948 467.624C312.342 468.187 312.997 468.682 313.914 469.111C314.91 469.593 315.893 469.835 316.862 469.835C318.514 469.835 319.994 469.218 321.305 467.986C322.615 466.753 323.27 465.347 323.27 463.766C323.27 462.024 322.628 460.497 321.344 459.184C320.06 457.872 318.514 457.215 316.705 457.215C315.002 457.215 313.573 457.778 312.42 458.903C311.346 459.948 310.808 461.18 310.808 462.6ZM313.678 463.726C313.678 462.654 313.98 461.797 314.582 461.154C315.159 460.537 315.932 460.229 316.902 460.229C317.793 460.229 318.553 460.618 319.182 461.395C319.811 462.199 320.125 463.083 320.125 464.047C320.125 464.851 319.798 465.588 319.143 466.258C318.487 466.928 317.78 467.262 317.02 467.262C316.129 467.262 315.355 466.901 314.7 466.177C314.019 465.454 313.678 464.637 313.678 463.726Z" fill="#EC9342"/>
<path d="M309 462.279C309 459.868 309.747 457.885 311.241 456.331C312.735 454.777 314.595 454 316.823 454C318.317 454 319.418 454.201 320.125 454.603C321.672 455.46 322.877 456.612 323.742 458.059C324.581 459.506 325 461.046 325 462.681C325 466.271 323.257 468.924 319.771 470.638C319.274 470.879 318.186 471 316.509 471C314.543 471 312.813 470.21 311.319 468.629C309.773 466.941 309 464.824 309 462.279ZM310.808 462.6C310.808 464.851 311.188 466.526 311.948 467.624C312.342 468.187 312.997 468.682 313.914 469.111C314.91 469.593 315.893 469.835 316.862 469.835C318.514 469.835 319.994 469.218 321.305 467.986C322.615 466.753 323.27 465.347 323.27 463.766C323.27 462.024 322.628 460.497 321.344 459.184C320.06 457.872 318.514 457.215 316.705 457.215C315.002 457.215 313.573 457.778 312.42 458.903C311.346 459.948 310.808 461.18 310.808 462.6ZM313.678 463.726C313.678 462.654 313.98 461.797 314.582 461.154C315.159 460.537 315.932 460.229 316.902 460.229C317.793 460.229 318.553 460.618 319.182 461.395C319.811 462.199 320.125 463.083 320.125 464.047C320.125 464.851 319.798 465.588 319.143 466.258C318.487 466.928 317.78 467.262 317.02 467.262C316.129 467.262 315.355 466.901 314.7 466.177C314.019 465.454 313.678 464.637 313.678 463.726Z" fill="#EC9342"/>
</svg>
